<svg width="24" height="24" viewBox="0 0 24 24" fill="none" xmlns="http://www.w3.org/2000/svg">
<path id="Vector" d="M13.1995 10.8H17.9995V13.2H13.1995V18H10.7995V13.2H5.99951V10.8H10.7995V6H13.1995V10.8ZM11.9995 24C8.81691 24 5.76467 22.7357 3.51423 20.4853C1.26379 18.2348 -0.000488281 15.1826 -0.000488281 12C-0.000488281 8.8174 1.26379 5.76516 3.51423 3.51472C5.76467 1.26428 8.81691 0 11.9995 0C15.1821 0 18.2344 1.26428 20.4848 3.51472C22.7352 5.76516 23.9995 8.8174 23.9995 12C23.9995 15.1826 22.7352 18.2348 20.4848 20.4853C18.2344 22.7357 15.1821 24 11.9995 24ZM11.9995 21.6C14.5456 21.6 16.9874 20.5886 18.7877 18.7882C20.5881 16.9879 21.5995 14.5461 21.5995 12C21.5995 9.45392 20.5881 7.01212 18.7877 5.21178C16.9874 3.41143 14.5456 2.4 11.9995 2.4C9.45343 2.4 7.01164 3.41143 5.21129 5.21178C3.41094 7.01212 2.39951 9.45392 2.39951 12C2.39951 14.5461 3.41094 16.9879 5.21129 18.7882C7.01164 20.5886 9.45343 21.6 11.9995 21.6Z" fill="black"/>
</svg>
