<svg width="30" height="31" viewBox="0 0 30 31" fill="none" xmlns="http://www.w3.org/2000/svg">
<g id="akar-icons:edit">
<g id="Group">
<path id="Vector" d="M20.5925 7.63918L23.24 10.2854M22.295 5.30793L15.1363 12.4667C14.7664 12.8361 14.5141 13.3067 14.4113 13.8192L13.75 17.1292L17.06 16.4667C17.5725 16.3642 18.0425 16.1129 18.4125 15.7429L25.5713 8.58418C25.7864 8.36906 25.957 8.11367 26.0734 7.8326C26.1899 7.55153 26.2498 7.25028 26.2498 6.94605C26.2498 6.64183 26.1899 6.34058 26.0734 6.05951C25.957 5.77844 25.7864 5.52305 25.5713 5.30793C25.3561 5.09281 25.1007 4.92216 24.8197 4.80574C24.5386 4.68932 24.2374 4.62939 23.9331 4.62939C23.6289 4.62939 23.3276 4.68932 23.0466 4.80574C22.7655 4.92216 22.5101 5.09281 22.295 5.30793Z" stroke="black" stroke-width="2" stroke-linecap="round" stroke-linejoin="round"/>
<path id="Vector_2" d="M23.75 19.6292V23.3792C23.75 24.0422 23.4866 24.6781 23.0178 25.1469C22.5489 25.6158 21.913 25.8792 21.25 25.8792H7.5C6.83696 25.8792 6.20107 25.6158 5.73223 25.1469C5.26339 24.6781 5 24.0422 5 23.3792V9.62915C5 8.96611 5.26339 8.33022 5.73223 7.86138C6.20107 7.39254 6.83696 7.12915 7.5 7.12915H11.25" stroke="black" stroke-width="2" stroke-linecap="round" stroke-linejoin="round"/>
</g>
</g>
</svg>
