<svg width="18" height="18" viewBox="0 0 18 18" fill="none" xmlns="http://www.w3.org/2000/svg">
<path id="Vector" d="M15.3453 0H2.6534C1.19403 0 0 1.19403 0 2.6534V15.3466C0 16.806 1.19403 18 2.6534 18H15.3466C16.806 18 18 16.806 18 15.3466V2.6534C17.9987 1.19403 16.806 0 15.3453 0ZM15.1748 9.6073H13.0388V17.3353H9.84279V9.6073H8.24411V6.94328H9.84279V5.34461C9.84279 3.17148 10.7449 1.87861 13.3121 1.87861H15.4461V4.54196H14.1114C13.1138 4.54196 13.0474 4.91542 13.0474 5.60995L13.0388 6.94328H15.4567L15.1748 9.6073Z" fill="#050000"/>
</svg>
