<svg width="29" height="24" viewBox="0 0 29 24" fill="none" xmlns="http://www.w3.org/2000/svg">
<path id="Vector" d="M26.1813 0H2.18133C1.60268 0 1.04772 0.229869 0.638551 0.63904C0.229381 1.04821 -0.000488281 1.60316 -0.000488281 2.18182V21.8182C-0.000488281 22.3968 0.229381 22.9518 0.638551 23.361C1.04772 23.7701 1.60268 24 2.18133 24H26.1813C26.76 24 27.3149 23.7701 27.7241 23.361C28.1333 22.9518 28.3631 22.3968 28.3631 21.8182V2.18182C28.3631 1.60316 28.1333 1.04821 27.7241 0.63904C27.3149 0.229869 26.76 0 26.1813 0ZM26.1813 2.18182V16.1932L22.6263 12.6395C22.4237 12.4369 22.1832 12.2761 21.9184 12.1665C21.6537 12.0568 21.3699 12.0003 21.0834 12.0003C20.7968 12.0003 20.5131 12.0568 20.2483 12.1665C19.9836 12.2761 19.743 12.4369 19.5404 12.6395L16.8131 15.3668L10.8131 9.36682C10.404 8.95796 9.84928 8.72828 9.27087 8.72828C8.69247 8.72828 8.13773 8.95796 7.7286 9.36682L2.18133 14.9141V2.18182H26.1813ZM2.18133 18L9.27224 10.9091L20.1813 21.8182H2.18133V18ZM26.1813 21.8182H23.2672L18.3581 16.9091L21.0854 14.1818L26.1813 19.2791V21.8182ZM16.3631 8.18182C16.3631 7.85818 16.4591 7.5418 16.6389 7.2727C16.8187 7.00361 17.0743 6.79387 17.3733 6.67002C17.6723 6.54616 18.0013 6.51376 18.3188 6.5769C18.6362 6.64004 18.9277 6.79588 19.1566 7.02473C19.3854 7.25358 19.5413 7.54516 19.6044 7.86258C19.6676 8.18 19.6352 8.50902 19.5113 8.80803C19.3875 9.10703 19.1777 9.3626 18.9086 9.54241C18.6395 9.72221 18.3232 9.81818 17.9995 9.81818C17.5655 9.81818 17.1493 9.64578 16.8424 9.3389C16.5356 9.03202 16.3631 8.61581 16.3631 8.18182Z" fill="black"/>
</svg>
