<svg width="19" height="18" viewBox="0 0 19 18" fill="none" xmlns="http://www.w3.org/2000/svg">
<path id="Vector" fill-rule="evenodd" clip-rule="evenodd" d="M15.3843 0C16.1799 0 16.943 0.316071 17.5056 0.87868C18.0682 1.44129 18.3843 2.20435 18.3843 3V15C18.3843 15.7956 18.0682 16.5587 17.5056 17.1213C16.943 17.6839 16.1799 18 15.3843 18H3.38428C2.58863 18 1.82557 17.6839 1.26296 17.1213C0.700348 16.5587 0.384277 15.7956 0.384277 15V3C0.384277 2.20435 0.700348 1.44129 1.26296 0.87868C1.82557 0.316071 2.58863 0 3.38428 0H15.3843ZM5.38428 7C5.11906 7 4.86471 7.10536 4.67717 7.29289C4.48963 7.48043 4.38428 7.73478 4.38428 8V13C4.38428 13.2652 4.48963 13.5196 4.67717 13.7071C4.86471 13.8946 5.11906 14 5.38428 14C5.64949 14 5.90385 13.8946 6.09138 13.7071C6.27892 13.5196 6.38428 13.2652 6.38428 13V8C6.38428 7.73478 6.27892 7.48043 6.09138 7.29289C5.90385 7.10536 5.64949 7 5.38428 7ZM8.38428 6C8.11906 6 7.86471 6.10536 7.67717 6.29289C7.48963 6.48043 7.38428 6.73478 7.38428 7V13C7.38428 13.2652 7.48963 13.5196 7.67717 13.7071C7.86471 13.8946 8.11906 14 8.38428 14C8.64949 14 8.90385 13.8946 9.09138 13.7071C9.27892 13.5196 9.38428 13.2652 9.38428 13V9.34C9.77441 8.91563 10.2489 8.57741 10.7773 8.347C11.1103 8.205 11.6113 8.147 11.9593 8.257C12.0747 8.28629 12.1775 8.35226 12.2523 8.445C12.3043 8.515 12.3843 8.671 12.3843 9V13C12.3843 13.2652 12.4896 13.5196 12.6772 13.7071C12.8647 13.8946 13.1191 14 13.3843 14C13.6495 14 13.9038 13.8946 14.0914 13.7071C14.2789 13.5196 14.3843 13.2652 14.3843 13V9C14.3843 8.33 14.2143 7.734 13.8603 7.256C13.5345 6.82256 13.0786 6.50472 12.5593 6.349C11.6573 6.066 10.6583 6.223 9.99128 6.509C9.77757 6.60046 9.56953 6.70465 9.36828 6.821C9.32636 6.59059 9.2049 6.3822 9.02507 6.23216C8.84525 6.08213 8.61847 5.99996 8.38428 6ZM5.38428 4C5.11906 4 4.86471 4.10536 4.67717 4.29289C4.48963 4.48043 4.38428 4.73478 4.38428 5C4.38428 5.26522 4.48963 5.51957 4.67717 5.70711C4.86471 5.89464 5.11906 6 5.38428 6C5.64949 6 5.90385 5.89464 6.09138 5.70711C6.27892 5.51957 6.38428 5.26522 6.38428 5C6.38428 4.73478 6.27892 4.48043 6.09138 4.29289C5.90385 4.10536 5.64949 4 5.38428 4Z" fill="#050000"/>
</svg>
