<svg width="19" height="19" viewBox="0 0 19 19" fill="none" xmlns="http://www.w3.org/2000/svg">
<g id="Vector">
<path d="M9.19238 5.95703C8.33043 5.95703 7.50378 6.29944 6.89429 6.90893C6.28479 7.51843 5.94238 8.34508 5.94238 9.20703C5.94238 10.069 6.28479 10.8956 6.89429 11.5051C7.50378 12.1146 8.33043 12.457 9.19238 12.457C10.0543 12.457 10.881 12.1146 11.4905 11.5051C12.1 10.8956 12.4424 10.069 12.4424 9.20703C12.4424 8.34508 12.1 7.51843 11.4905 6.90893C10.881 6.29944 10.0543 5.95703 9.19238 5.95703Z" fill="#050000"/>
<path fill-rule="evenodd" clip-rule="evenodd" d="M3.9622 0.288975C7.43823 -0.0963249 10.9462 -0.0963249 14.4222 0.288975C16.3212 0.500975 17.8522 1.99597 18.0752 3.90197C18.4874 7.42663 18.4874 10.9873 18.0752 14.512C17.8522 16.418 16.3212 17.913 14.4232 18.126C10.9469 18.5114 7.43855 18.5114 3.9622 18.126C2.0632 17.913 0.532204 16.418 0.309204 14.513C-0.103068 10.988 -0.103068 7.42696 0.309204 3.90197C0.532204 1.99597 2.0632 0.500975 3.9622 0.288975ZM14.1922 3.20697C13.927 3.20697 13.6726 3.31233 13.4851 3.49987C13.2976 3.6874 13.1922 3.94176 13.1922 4.20697C13.1922 4.47219 13.2976 4.72654 13.4851 4.91408C13.6726 5.10162 13.927 5.20697 14.1922 5.20697C14.4574 5.20697 14.7118 5.10162 14.8993 4.91408C15.0868 4.72654 15.1922 4.47219 15.1922 4.20697C15.1922 3.94176 15.0868 3.6874 14.8993 3.49987C14.7118 3.31233 14.4574 3.20697 14.1922 3.20697ZM4.4422 9.20697C4.4422 7.9472 4.94265 6.73902 5.83345 5.84822C6.72424 4.95742 7.93243 4.45697 9.1922 4.45697C10.452 4.45697 11.6602 4.95742 12.551 5.84822C13.4418 6.73902 13.9422 7.9472 13.9422 9.20697C13.9422 10.4668 13.4418 11.6749 12.551 12.5657C11.6602 13.4565 10.452 13.957 9.1922 13.957C7.93243 13.957 6.72424 13.4565 5.83345 12.5657C4.94265 11.6749 4.4422 10.4668 4.4422 9.20697Z" fill="#050000"/>
</g>
</svg>
