<svg width="20" height="20" viewBox="0 0 20 20" fill="none" xmlns="http://www.w3.org/2000/svg">
<path id="Vector" d="M18.0682 19.6871L11.7045 13.3144C11.1364 13.7696 10.483 14.1299 9.74432 14.3954C9.00568 14.661 8.2197 14.7937 7.38636 14.7937C5.32197 14.7937 3.575 14.0776 2.14545 12.6452C0.715909 11.2129 0.000757576 9.46344 0 7.39687C0 5.32954 0.715152 3.58009 2.14545 2.14851C3.57576 0.716927 5.32273 0.000758653 7.38636 0C9.45076 0 11.1977 0.716169 12.6273 2.14851C14.0568 3.58084 14.772 5.3303 14.7727 7.39687C14.7727 8.23139 14.6402 9.01849 14.375 9.75818C14.1098 10.4979 13.75 11.1522 13.2955 11.7212L19.6875 18.1223C19.8958 18.331 20 18.587 20 18.8905C20 19.1939 19.8864 19.4595 19.6591 19.6871C19.4508 19.8957 19.1856 20 18.8636 20C18.5417 20 18.2765 19.8957 18.0682 19.6871ZM7.38636 12.5178C8.80682 12.5178 10.0144 12.0197 11.0091 11.0236C12.0038 10.0275 12.5008 8.81859 12.5 7.39687C12.5 5.97439 12.0027 4.7651 11.008 3.76899C10.0133 2.77288 8.80606 2.2752 7.38636 2.27596C5.96591 2.27596 4.75833 2.77402 3.76364 3.77013C2.76894 4.76624 2.27197 5.97515 2.27273 7.39687C2.27273 8.81934 2.77008 10.0286 3.76477 11.0247C4.75947 12.0209 5.96667 12.5185 7.38636 12.5178Z" fill="#050000"/>
</svg>
