<svg width="19" height="18" viewBox="0 0 19 18" fill="none" xmlns="http://www.w3.org/2000/svg">
<g id="Vector">
<path d="M18.3753 4.0925C18.3678 3.70636 18.3368 3.32103 18.2826 2.93865C18.2179 2.59852 18.108 2.26858 17.9559 1.9576C17.6227 1.29994 17.0887 0.765556 16.4313 0.432022C16.1223 0.280555 15.7945 0.170984 15.4566 0.106205C15.0713 0.0508369 14.683 0.0192754 14.2938 0.0117006C14.1291 0.00540028 13.9158 0.00270015 13.8168 0.00270015L4.95358 0C4.85458 0 4.64128 0.00270013 4.47658 0.00900044C4.09045 0.0164408 3.70514 0.0473996 3.32278 0.101705C2.98267 0.166364 2.65274 0.276245 2.34178 0.428421C1.68419 0.761619 1.14985 1.29567 0.816277 1.9531C0.664858 2.2621 0.555294 2.5899 0.490477 2.92785C0.43486 3.31314 0.403 3.7015 0.395077 4.0907C0.389677 4.25541 0.386077 4.46872 0.386077 4.56773L0.384277 13.4314C0.384277 13.5304 0.386977 13.7437 0.393277 13.9084C0.400717 14.2945 0.431675 14.6799 0.485977 15.0623C0.550644 15.4024 0.660518 15.7323 0.812677 16.0433C1.14586 16.7009 1.67988 17.2353 2.33728 17.5689C2.64627 17.7203 2.97405 17.8299 3.31198 17.8947C3.69727 17.9501 4.0856 17.9816 4.47478 17.9892C4.63948 17.9955 4.85278 17.9982 4.95178 17.9982L13.815 18C13.914 18 14.1273 17.9973 14.292 17.991C14.6781 17.9835 15.0634 17.9526 15.4458 17.8983C15.7859 17.8336 16.1158 17.7237 16.4268 17.5716C17.0847 17.2385 17.6194 16.7045 17.9532 16.0469C18.1046 15.7379 18.2142 15.4101 18.279 15.0722C18.3346 14.6869 18.3665 14.2985 18.3744 13.9093C18.3798 13.7446 18.3834 13.5313 18.3834 13.4323L18.3843 4.56953C18.3843 4.47052 18.3816 4.25721 18.3753 4.0925ZM9.57958 15.2621H9.57688C8.50557 15.2619 7.45139 14.9933 6.51058 14.4808L3.10858 15.3728L4.01938 12.0489C3.31419 10.8251 3.03241 9.40287 3.21775 8.00265C3.40308 6.60242 4.04517 5.30246 5.04445 4.30431C6.04374 3.30616 7.3444 2.66559 8.74477 2.48191C10.1451 2.29824 11.567 2.58172 12.7899 3.2884C14.0127 3.99508 14.9683 5.08549 15.5085 6.39055C16.0486 7.69562 16.1431 9.14244 15.7773 10.5067C15.4116 11.8709 14.6059 13.0764 13.4854 13.9362C12.3648 14.7959 10.9919 15.262 9.57958 15.2621Z" fill="#050000"/>
<path d="M9.58249 3.51099C8.62947 3.51071 7.69377 3.76577 6.87271 4.24964C6.05165 4.73352 5.3752 5.42853 4.91372 6.26242C4.45224 7.0963 4.22258 8.03859 4.24862 8.99131C4.27466 9.94403 4.55545 10.8724 5.06179 11.6798L5.18869 11.8814L4.64959 13.8489L6.66829 13.3197L6.86269 13.4349C7.68447 13.9216 8.622 14.1784 9.57709 14.1783H9.57979C10.9944 14.1786 12.3512 13.6168 13.3517 12.6166C14.3521 11.6165 14.9143 10.2598 14.9145 8.8451C14.9148 7.43041 14.3531 6.07356 13.3529 5.07305C12.3528 4.07254 10.9962 3.51033 9.58159 3.51009L9.58249 3.51099ZM12.7181 11.1344C12.6001 11.3292 12.4431 11.4975 12.2569 11.6287C12.0708 11.7599 11.8594 11.8512 11.6363 11.8967C11.2994 11.9545 10.9536 11.9329 10.6265 11.8337C10.3163 11.737 10.0113 11.6241 9.71299 11.4953C8.60575 10.9396 7.66198 10.1056 6.97429 9.07507C6.59915 8.59802 6.37143 8.02182 6.31909 7.41718C6.31477 7.16761 6.36247 6.91988 6.45916 6.68976C6.55585 6.45965 6.69941 6.25219 6.88069 6.08062C6.93426 6.0195 6.9999 5.97012 7.07346 5.93558C7.14703 5.90104 7.22695 5.88208 7.30819 5.87991C7.41439 5.87991 7.52149 5.87991 7.61509 5.88531C7.71409 5.88981 7.84549 5.8475 7.97509 6.16072C8.11009 6.48114 8.43049 7.27048 8.47009 7.35058C8.49551 7.39257 8.51006 7.44024 8.51241 7.48928C8.51477 7.53831 8.50486 7.58715 8.48359 7.63139C8.44321 7.72768 8.38927 7.8177 8.32339 7.89871C8.24239 7.99231 8.15509 8.10752 8.08309 8.17952C8.00209 8.25962 7.91929 8.34603 8.01199 8.50624C8.25276 8.91851 8.55333 9.2928 8.90389 9.61689C9.28426 9.95508 9.7207 10.2243 10.1936 10.4125C10.3538 10.4935 10.4474 10.4791 10.541 10.372C10.6346 10.2649 10.9415 9.90401 11.0486 9.7438C11.1557 9.58359 11.2619 9.61059 11.4086 9.6637C11.5553 9.7168 12.3446 10.1047 12.5048 10.1857C12.665 10.2667 12.7721 10.3054 12.8117 10.372C12.8556 10.6298 12.823 10.8948 12.7181 11.1344Z" fill="#050000"/>
</g>
</svg>
