<svg width="26" height="18" viewBox="0 0 26 18" fill="none" xmlns="http://www.w3.org/2000/svg">
<path id="Vector" d="M24.8568 2.8102C24.7146 2.26657 24.436 1.7709 24.049 1.37281C23.662 0.974716 23.1801 0.688166 22.6516 0.541837C20.7053 1.64217e-07 12.8843 0 12.8843 0C12.8843 0 5.06327 1.64217e-07 3.11695 0.541837C2.58844 0.688166 2.10656 0.974716 1.71955 1.37281C1.33254 1.7709 1.05396 2.26657 0.911706 2.8102C0.548285 4.85198 0.371926 6.92433 0.384949 9C0.371926 11.0757 0.548285 13.148 0.911706 15.1898C1.05396 15.7334 1.33254 16.2291 1.71955 16.6272C2.10656 17.0253 2.58844 17.3118 3.11695 17.4582C5.06327 18 12.8843 18 12.8843 18C12.8843 18 20.7053 18 22.6516 17.4582C23.1801 17.3118 23.662 17.0253 24.049 16.6272C24.436 16.2291 24.7146 15.7334 24.8568 15.1898C25.2203 13.148 25.3966 11.0757 25.3836 9C25.3966 6.92433 25.2203 4.85198 24.8568 2.8102ZM10.3844 12.8571V5.14286L16.8751 9L10.3844 12.8571Z" fill="#050000"/>
</svg>
